<?xml version="1.0" encoding="UTF-8"?>
<svg width="106px" height="89px" viewBox="0 0 106 89" version="1.1" xmlns="http://www.w3.org/2000/svg" xmlns:xlink="http://www.w3.org/1999/xlink">
    <!-- Generator: Sketch 44.1 (41455) - http://www.bohemiancoding.com/sketch -->
    <title>Group</title>
    <desc>Created with Sketch.</desc>
    <defs></defs>
    <g id="Page-1" stroke="none" stroke-width="1" fill="none" fill-rule="evenodd">
        <g id="Group" fill="#1B1A18">
            <path d="M104.839,16.327 C104.819,16.311 104.803,16.29 104.778,16.278 L104.742,16.26 L73.172,0.475 C72.959,0.368 72.735,0.296 72.508,0.238 C72.223,0.165 71.932,0.12 71.64,0.12 C70.431,0.12 69.228,0.727 68.576,1.785 L50.401,31.321 L73.21,68.385 L104.936,16.831 C105.041,16.659 104.991,16.447 104.839,16.327" id="Fill-53"></path>
            <polyline id="Fill-54" points="40.39 24.593 40.39 58.214 70.274 73.156 40.39 24.593"></polyline>
            <path d="M74.764,75.401 L99.363,87.7 C102.564,89.301 105.159,88.18 105.159,85.198 L105.159,26.009 L74.764,75.401" id="Fill-55"></path>
            <path d="M35.202,16.375 L4.369,0.958 C3.812,0.68 3.282,0.548 2.802,0.548 C1.452,0.548 0.505,1.593 0.505,3.346 L0.505,69.916 C0.505,71.698 1.809,73.808 3.403,74.605 L30.56,88.183 C31.256,88.531 31.919,88.696 32.518,88.696 C34.206,88.696 35.39,87.39 35.39,85.198 L35.39,16.678 C35.39,16.55 35.317,16.432 35.202,16.375" id="Fill-56"></path>
        </g>
    </g>
</svg>