<svg width="1501px" height="376px" viewBox="0 0 1501 376" version="1.1" xmlns="http://www.w3.org/2000/svg" xmlns:xlink="http://www.w3.org/1999/xlink">
    <title>Group</title>
    <g id="Page-1" stroke="none" stroke-width="1" fill="none" fill-rule="evenodd">
        <g id="Group" fill="#fff">
            <path d="M110.487,212.91 C112.414,214.535 112.246,216.772 114.163,218.083 C115.83,216.56 117.377,214.912 119.415,212.91 C116.208,212.91 113.772,212.91 110.487,212.91 Z M142.445,291.773 C144.354,290.343 144.084,288.74 143.835,287.162 C142.019,285.865 142.024,285.83 139.394,285.91 C136.936,289.127 136.945,289.144 142.445,291.773 Z M45.423,252.521 C43.247,253.558 42.008,251.982 40.14,251.73 C40.14,255.123 40.14,258.23 40.14,261.166 C39.349,262.031 38.267,262.619 39.413,263.744 C39.729,263.773 40.048,263.8 40.727,263.861 C40.995,259.941 43.882,257.06 45.423,252.521 Z M170.688,252.826 C168.248,253.976 168.16,256.521 167.175,258.521 C168.267,260.414 170.447,259.498 171.63,260.646 C174.447,258.074 173.561,254.705 175.031,252.134 C173.058,251.257 172.236,253.802 170.688,252.826 Z M70.889,334.992 C67.702,334.992 64.915,334.992 61.908,334.992 C62.304,338.189 64.606,339.82 66.335,341.668 C67.894,341.668 69.342,341.668 70.889,341.668 C70.889,339.404 70.889,337.287 70.889,334.992 Z M42.78,292.107 C40.953,296.49 40.367,301.158 38.749,306.351 C42.858,304.42 46.365,303.472 49.47,301.107 C51.506,299.554 53.631,297.804 56.137,296.814 C61.041,294.875 66.299,294.771 71.722,293.55 C72.768,292.271 74.352,291.004 75.431,289.072 C76.526,287.113 78.537,285.625 80.278,284.08 C81.763,282.763 82.07,280.295 84.538,279.923 C90.542,280.449 96.163,279.285 100.734,275.289 C102.51,271.619 104.156,268.279 107.979,266.171 C111.83,264.048 115.536,261.429 118.753,258.435 C128.555,249.312 137.824,239.677 144.701,227.934 C140.81,225.596 136.931,223.266 132.737,220.746 C125.769,221.439 118.317,219.736 111.037,221.83 C107.889,221.066 105.072,223.315 101.954,222.83 C100.331,224.352 98.159,223.316 96.424,223.963 C90.213,226.279 83.604,227.427 77.667,230.577 C74.801,232.097 72.788,231.873 69.224,230.55 C66.481,229.532 63.822,228.252 61.026,227.426 C57.708,226.445 54.242,225.309 51.459,227.772 C50.229,232.761 49.106,237.308 47.991,241.829 C48.129,243.142 49.607,243.425 49.95,244.515 C50.53,246.243 49.045,247.623 49.075,249.107 C49.166,253.521 47.269,257.421 45.794,261.285 C44.486,264.711 42.903,268.388 39.613,270.72 C39.359,270.9 39.195,271.207 39.043,271.39 C39.043,272.113 39.043,272.765 39.043,274.478 C39.514,274.949 40.49,275.925 41.441,276.877 C39.833,278.484 37.948,280.371 35.964,282.353 C36.241,285.425 35.224,288.759 37.341,291.666 C38.881,291.992 40.379,292.002 41.748,291.076 C42.107,291.433 42.461,291.787 42.78,292.107 Z M0,281.822 C0.633,281.935 0.863,281.545 1,281.031 C1.803,278.011 2.083,277.474 3.865,275.429 C4.425,273.263 3.513,271.232 4.856,269.101 C5.853,267.523 4.27,264.908 5.999,263.109 C5.527,258.867 7.649,255.068 8.21,250.972 C8.698,247.398 9.956,243.744 11.213,240.273 C12.213,237.511 13.151,234.62 13.744,231.881 C14.366,229.006 14.825,225.887 15.193,222.878 C15.943,216.758 17.039,210.512 20.997,205.329 C20.997,203.512 21.199,201.652 20.942,199.858 C20.67,197.96 22,196.557 22.039,194.767 C22.095,192.221 24.026,190.275 24.547,187.82 C25.29,184.314 27.516,181.15 26.992,177.345 C26.893,176.621 27.255,176.173 27.663,175.611 C28.602,174.319 27.908,173.191 26.993,172.175 C27.496,170.138 28.618,168.457 30.491,166.877 C27.864,164.383 24.424,163.049 23.05,159.887 C21.735,156.865 20.674,153.691 21.139,149.594 C27.618,142.635 34.298,135.11 40.745,127.402 C41.981,120.835 43.219,114.233 44.86,107.67 C46.445,101.333 48.222,95.055 50.054,88.8 C51.917,82.442 54.175,76.192 56.423,69.953 C58.615,63.872 61.013,57.863 63.309,51.852 C67.292,51.852 71.137,52.075 74.943,51.787 C78.618,51.51 81.258,53.082 83.287,55.754 C84.346,57.148 85.383,58.554 86.468,59.934 C87.4,61.122 88.274,62.573 87.979,64.279 C87.81,65.246 88.356,65.806 88.916,66.284 C87.137,68.622 88.622,72.163 85.494,73.648 C86.966,76.719 88.163,79.219 89.392,81.783 C92.674,81.783 95.988,81.783 99.608,81.783 C111.175,68.94 125.189,61.009 143.392,63.028 C150.501,72.41 154.385,83.553 158.694,94.602 C156.724,96.641 156.33,99.831 156.168,102.611 C155.979,105.858 155.384,109.01 154.897,112.169 C154.408,115.34 152.693,118.077 150.064,120.203 C150.064,122.816 150.064,125.461 150.064,128.471 C144.947,132.413 140.581,137.477 135.078,141.255 C134.809,141.441 134.579,141.702 134.371,141.96 C130.934,146.202 125.921,148.709 122.528,152.875 C120.726,152.875 119.069,152.875 117.443,152.875 C113.201,156.697 111.405,162.186 107.713,166.644 C103.93,167.032 100.401,168.805 97.35,171.135 C94.581,173.249 92.789,176.418 90.878,179.379 C90.031,180.693 88.176,181.483 89.341,183.854 C91.398,183.632 93.511,184.475 95.647,184.728 C100.292,185.279 104.83,184.304 109.395,183.121 C111.93,182.464 114.534,181.339 117.39,181.785 C119.777,182.157 121.977,180.787 124.462,180.721 C133.585,180.479 141.834,183.126 149.843,187.146 C155.012,189.741 159.798,192.931 164.643,196.039 C165.465,196.566 166.263,197.316 166.748,198.152 C169.163,202.313 172.167,206.166 173.914,210.671 C174.876,213.149 176.656,215.105 177.553,217.672 C178.241,219.641 176.916,222.042 178.978,223.569 C179.231,227.677 181.249,231.344 181.941,235.328 C182.611,239.181 183.918,242.838 184.972,246.574 C185.015,246.728 184.977,246.906 184.977,247.369 C183.047,248.605 182.211,251.004 180.542,252.72 C178.848,254.466 177.439,256.515 176.142,258.453 C174.855,260.373 172.587,261.046 171.578,263.425 C170.724,265.441 169.092,267.486 167.265,269.185 C165.655,270.683 164.674,272.832 162.973,274.371 C161.121,276.045 159.552,278.048 157.615,279.605 C155.649,281.183 154.763,283.502 153.122,285.304 C151.512,287.074 150.396,289.298 148.382,290.83 C147.459,290.83 146.462,290.83 145.473,290.83 C144.522,291.781 143.58,292.722 142.456,293.847 C138.598,293.488 134.783,294.445 131.177,296.16 C127.834,297.75 124.577,299.519 121.044,301.334 C121.044,302.533 121.044,303.984 121.044,305.629 C117.098,305.629 113.314,305.629 109.6,305.629 C108.4,307.296 109.377,308.943 108.734,310.845 C111.722,310.845 114.31,310.845 116.969,310.845 C116.924,313.732 115.123,315.158 113.398,316.908 C108.455,316.908 103.336,316.908 98.106,316.908 C98.106,319.043 98.106,321.013 98.106,323.191 C94.207,327.195 89.765,330.623 85.357,334.146 C82.974,336.052 80.367,337.773 78.261,340.043 C76.42,342.027 74.262,343.259 71.54,342.765 C70.846,343.459 70.215,344.013 69.675,344.644 C65.333,349.716 59.848,353.177 53.801,355.8 C46.04,359.171 40.472,364.773 37.125,372.457 C36.717,373.392 35.096,373.996 36.322,375.623 C33.104,375.623 30.318,375.623 27.335,375.623 C24.24,372.509 20.954,369.205 18.291,366.527 C14.391,364.619 11.001,364.66 7.325,364.88 C6.217,360.211 4.977,355.564 4.045,350.857 C3.406,347.63 1.86,344.607 1.918,341.232 C0.367,340.138 1.194,338.509 1.013,337.113 C0.926,336.441 0.992,335.742 0,335.816 C0,334.816 0,333.816 0,332.816 C0.498,332.816 1.205,333.031 1.462,332.783 C3.756,330.554 6.791,329.48 9.298,327.693 C12.202,325.623 15.701,324.242 18.045,321.125 C13.285,317.539 8.581,313.996 3.963,310.515 C4.413,307.671 2.501,305.396 2.968,302.728 C3.39,300.318 2.979,297.82 1.892,295.734 C1.154,294.32 1.076,293.033 0.983,291.609 C0.949,291.091 0.63,290.709 0,290.822 C0,287.822 0,284.822 0,281.822 L0,281.822 Z" id="Fill-12"></path>
            <path d="M1477.71,110.869 C1475.08,111.993 1473.29,113.552 1471.81,115.5 C1472.02,116.581 1471.36,117.785 1472.4,118.981 C1474.13,118.158 1475.91,117.312 1477.71,116.453 C1477.71,114.69 1477.71,112.916 1477.71,110.869 Z M1469.71,117.983 C1468.41,120.616 1466.43,119.759 1465.04,120.858 C1462.61,122.775 1460.37,124.837 1458.18,126.988 C1456.24,128.902 1454.42,130.911 1451.32,130.921 C1450.75,130.923 1450.2,131.965 1449.72,132.439 C1450.86,135.632 1451.78,138.589 1452.02,142.706 C1454.78,138.007 1457.98,134.835 1461.36,131.913 C1464.7,129.013 1467.25,125.542 1469.71,122.17 C1469.71,121.06 1469.71,120.097 1469.71,117.983 Z M1345.39,326.093 C1343.82,324.617 1341.36,323.851 1339.27,322.92 C1337.94,322.334 1337.41,321.666 1336.77,320.453 C1333.6,314.441 1330.58,308.363 1327.63,302.24 C1327.19,301.322 1326.77,300.545 1326.84,299.564 C1327.2,294.691 1325.79,290.183 1324.23,285.648 C1323.2,282.654 1323.27,279.23 1324.04,276.369 C1324.91,273.111 1325.18,269.646 1326.68,266.486 C1327.09,265.63 1327.53,264.435 1327.95,263.523 C1329.08,261.023 1329.87,258.589 1329.87,255.802 C1329.87,251.312 1330.69,247.171 1333.57,243.298 C1335.1,241.256 1335.84,238.17 1335.82,235.293 C1335.79,231.913 1336.34,228.758 1337.43,225.472 C1338.39,222.579 1338.94,219.452 1339.78,216.438 C1341.31,210.905 1342.52,205.277 1344.36,199.829 C1345.3,197.035 1345.11,193.919 1346.81,191.351 C1347,185.929 1349.93,181.28 1351.11,176.123 C1352.67,169.33 1355.76,162.968 1356.9,156.018 C1357.32,153.438 1358.95,151.15 1358.88,148.336 C1358.82,145.794 1359.59,143.257 1360.02,140.786 C1360.78,136.43 1362.36,132.119 1364.22,128.077 C1366.56,122.993 1367.79,117.563 1369.83,112.4 C1370.9,109.675 1371.31,106.707 1372.97,103.899 C1369.53,97.823 1363.85,93.343 1360.25,87.535 C1361.18,81.799 1362.12,76.073 1363.02,70.583 C1361.25,68.514 1359.13,67.94 1356.82,67.571 C1356.91,67.009 1356.83,66.401 1357.08,66.145 C1359.05,64.205 1360.35,62.118 1361.14,59.286 C1361.91,56.528 1363.56,53.691 1366.44,51.933 C1368.66,51.975 1370.78,50.056 1373.25,50.981 C1375.1,49.114 1376.79,47.277 1378.62,45.578 C1385.76,38.946 1390.19,30.717 1392.8,21.452 C1393.64,18.446 1394.55,15.464 1394.96,12.309 C1395.19,10.629 1395.73,8.753 1396.91,7.13 C1398.25,5.295 1399.77,3.368 1399.82,0.858 C1404.82,0.858 1409.82,0.858 1414.82,0.858 C1415.68,2.939 1417.8,3.885 1419.07,5.728 C1420.69,5.728 1422.32,5.728 1424.39,5.728 C1424.9,6.511 1425.53,7.481 1426.16,8.45 C1429.62,16.623 1432.14,25.385 1435.4,33.208 C1436.21,33.694 1436.36,33.855 1436.48,33.842 C1442.39,33.269 1448.15,35.534 1454.06,34.854 C1459.18,36.576 1464.64,36.137 1469.88,37.636 C1473.58,38.697 1477.41,39.553 1481.17,40.581 C1486.94,42.154 1491.06,45.581 1493.73,50.633 C1495.44,53.876 1497.27,57.118 1498.29,60.742 C1498.92,63.013 1499.42,65.384 1499.66,67.616 C1500.17,72.395 1500.46,77.384 1499.61,82.059 C1498.92,85.809 1499.58,90.072 1496.81,93.352 C1496.43,98.153 1494.12,102.199 1491.89,106.315 C1489.47,110.773 1486.61,114.867 1483.46,118.844 C1481.11,121.802 1478.83,124.85 1475.89,127.125 C1471.71,130.367 1468.09,134.139 1464.35,137.813 C1463.77,138.391 1463.04,138.6 1462.32,138.942 C1457.45,141.276 1452.61,143.711 1447.91,146.361 C1446.64,147.073 1445.84,146.55 1444.34,146.781 C1445.63,144.205 1446.64,142.183 1447.74,139.994 C1443.85,139.994 1440.06,139.994 1435.92,139.994 C1435.92,142.441 1435.92,145.025 1435.92,147.419 C1430.18,148.684 1424.82,149.866 1419.05,151.138 C1417.3,152.955 1415.23,155.108 1412.92,157.494 C1412.92,159.252 1412.92,161.37 1412.92,163.663 C1415.41,163.663 1417.87,163.663 1420.5,163.663 C1422.92,161.241 1425.51,158.649 1428.08,156.083 C1430.35,156.083 1432.58,156.083 1435.84,156.083 C1432.25,158.67 1429.94,161.257 1427.47,163.693 C1424.98,166.151 1422.52,168.638 1420.05,171.113 C1417.46,173.699 1414.87,176.287 1412.3,178.862 C1406.59,178.862 1400.93,178.862 1395.22,178.862 C1394.4,180.075 1394.79,181.455 1394.87,182.698 C1395.09,185.685 1394.14,188.414 1392.76,190.834 C1389.65,196.277 1387.93,201.919 1389.03,208.179 C1387.68,209.41 1386.46,210.528 1385.03,211.837 C1383.38,212.513 1382.47,210.868 1381.29,209.847 C1378.75,214.55 1376.97,219.46 1375.46,224.516 C1375.14,225.611 1375,226.655 1374.82,227.735 C1374.57,229.28 1375.17,230.807 1373.98,232.43 C1373.23,233.45 1373.45,235.606 1374.97,236.648 C1374.35,237.984 1373.8,238.962 1372.28,238.82 C1371.44,240.907 1369.57,242.899 1371.77,245.27 C1371.34,248.943 1373.07,251.92 1374.43,255.17 C1375.49,257.72 1375.31,260.931 1374.34,263.8 C1373.31,266.871 1372.29,269.947 1371.15,272.974 C1370.41,274.91 1371.56,277.236 1369.83,278.925 C1369.6,283.681 1367.11,287.882 1366.43,292.554 C1366.32,293.357 1365.72,294.357 1365.86,295.261 C1366.57,299.718 1365.09,303.988 1364.71,308.337 L1345.39,326.093 Z" id="Fill-14"></path>
            <path d="M838.1,324.728 C837.436,322.834 836.925,321.377 836.056,318.894 C836.056,321.55 836.056,323.093 836.056,324.728 C836.661,324.728 837.104,324.728 838.1,324.728 Z M866.414,208.767 C871.908,207.541 874.896,201.582 871.329,196.737 C870.201,200.766 868.504,204.476 866.414,208.767 Z M761.904,231.389 C761.66,231.408 761.417,231.427 761.173,231.447 C760.962,230.86 760.751,230.274 760.535,229.674 C758.368,231.948 756.09,233.586 755.816,236.998 C757.038,237.39 756.208,239.438 757.547,239.814 C758.991,238.377 760.241,237.134 761.904,235.48 C761.904,234.666 761.904,233.027 761.904,231.389 Z M828.401,316.98 C831.051,316.459 832.417,314.115 834.896,313.447 C834.896,310.189 834.907,306.882 834.872,303.576 C834.87,303.322 834.538,303.072 834.369,302.832 C834.029,302.832 833.699,302.832 833.22,302.832 C831.604,307.152 828.989,311.013 826.641,315.091 C827.334,315.836 827.878,316.418 828.401,316.98 Z M854.44,254.709 C856.45,250.722 858.404,246.709 860.483,242.759 C862.589,238.759 863.955,234.366 864.657,230.085 C865.365,225.772 867.292,221.48 866.646,216.811 C864.886,217.481 865.01,219.064 864.208,220.057 C860.851,224.214 857.731,233.24 856.995,238.969 C856.823,240.31 855.712,241.124 855.833,242.536 C855.937,243.746 856.455,245.217 855.049,246.171 C855.23,249.021 854.256,251.748 854.44,254.709 Z M820.588,91.038 C820.238,93.437 818.618,94.608 817.259,95.971 C815.86,97.372 815.381,99.089 814.791,100.962 C812.939,106.84 811.955,112.981 808.964,118.539 C805.452,125.062 803.391,132.217 800.851,139.163 C798.896,144.511 797.593,150.18 793.95,154.814 C793.711,155.119 793.61,155.722 793.23,155.989 C789.015,158.933 787.586,163.546 786.262,168.094 C785.758,169.825 784.293,171.441 785.012,173.452 C786.776,174.887 788.559,173.391 789.336,172.651 C791.235,170.845 793.67,169.785 795.415,167.84 C796.303,166.849 797.127,165.609 798.26,165.061 C803.951,162.308 808.283,157.496 814.207,154.618 C816.059,156.164 818.366,155.931 820.597,155.813 C826.336,155.508 831.912,157.446 837.686,156.931 C838.945,156.819 840.22,158.075 841.767,157.872 C843.047,157.704 844.367,157.838 845.843,157.838 C845.462,153.099 848.418,149.972 850.695,146.699 C852.275,144.431 853.207,142.285 852.845,139.664 C855.77,135.867 857.985,131.841 860.095,127.59 C863.479,120.772 865.281,113.412 868.439,106.531 C870.234,102.624 872.369,98.839 873.846,94.786 C874.229,93.732 875.253,93.43 875.89,91.676 C875.89,91.41 875.983,90.263 875.874,89.134 C875.319,83.408 877.345,78.14 879.343,73.067 C881.957,66.421 884.352,59.802 886.038,52.825 C887.512,46.726 889.648,40.563 896.022,36.785 C899.258,37.828 902.941,39.014 906.888,40.287 C909.062,43.121 909.845,46.834 910.808,50.383 C911.745,53.834 912.797,57.271 913.49,60.805 C913.745,62.102 913.953,63.393 913.83,64.609 C913.351,69.364 914.39,73.898 916.025,78.227 C916.496,79.474 916.738,80.604 916.901,81.862 C917.54,86.794 915.76,91.535 915.814,96.17 C913.898,99.429 912.528,102.7 911.168,105.987 C910.889,106.663 910.931,107.248 910.898,107.87 C910.441,116.79 906.003,129.129 898.886,135.388 C898.634,136.746 900.002,137.491 900,138.972 C899.997,142.682 897.722,151.966 895.561,156.673 C894.469,159.052 893.12,161.374 892.462,163.874 C891.787,166.441 889.781,168.503 889.838,171.318 C889.846,171.653 889.165,172.002 888.824,172.376 C888.021,173.257 886.943,172.871 886.034,172.791 C884.249,172.634 882.954,173.67 881.768,174.564 C879.875,175.989 873.417,187.064 872.92,189.344 C872.624,190.703 873.433,192.312 871.945,193.388 C872.424,193.867 872.896,194.338 873.381,194.824 C875.313,194.837 876.492,192.773 878.34,192.809 C880.114,194.276 877.752,194.776 877.862,195.851 C877.98,197.003 878.29,198.394 877.807,199.304 C876.082,202.555 876.656,206.324 875.007,209.658 C873.524,212.656 873.047,216.161 872.089,219.412 C870.911,223.411 869.854,227.53 869,231.629 C867.693,237.898 865.444,243.81 863.468,249.845 C862.356,253.24 860.31,256.189 859.442,259.691 C858.794,262.31 856.322,263.765 854.483,265.74 C852.92,265.74 851.276,265.74 849.772,265.74 C846.479,267.734 845.98,271.142 844.895,274.218 C843.971,276.834 842.93,279.42 842.181,282.086 C841.497,284.513 840.755,286.906 840.832,289.556 C841.022,296.048 840.895,302.548 840.895,308.925 C840.126,310.384 839.407,311.748 838.527,313.418 C840.584,314 842.221,314.369 843.765,312.398 C843.765,310.515 843.765,308.392 843.765,306.046 C845.832,306.046 847.734,306.046 849.982,306.046 C849.435,308.695 848.664,311.246 848.421,313.843 C847.829,320.173 844.184,325.468 842.706,331.486 C842.189,333.589 841.352,335.621 840.939,337.74 C840.566,339.654 841.405,341.744 840.573,343.595 C838.235,348.796 836.106,354.105 833.163,359.015 C832.937,359.392 832.448,359.613 832.072,359.916 C824.506,354.406 818.276,347.617 811.742,341.16 C810.641,338.031 807.646,336.355 805.949,333.591 C804.511,331.252 803.748,328.791 802.953,326.312 C801.815,322.767 801.49,319.002 800.143,315.478 C799.698,314.318 799.88,312.882 799.922,311.58 C799.965,310.248 799.891,309.005 798.896,308.039 C798.875,306.851 800.246,306.24 799.928,304.902 C799.105,301.455 800.548,298.148 801.086,294.857 C801.518,292.212 802.669,289.545 803.349,286.847 C804.082,283.939 805.122,281.113 804.949,277.988 C804.771,274.777 804.525,271.494 806.564,267.593 C807.544,266.431 809.885,265.021 810.852,261.353 C810.408,254.976 812.932,248.296 815.55,241.423 C818.22,234.415 821.281,227.189 819.529,218.962 C819.353,218.786 818.882,218.315 818.397,217.831 C816.413,217.831 814.379,218.069 812.426,217.775 C809.418,217.322 806.717,218.694 803.859,219.034 C801.446,219.322 798.956,220.597 796.694,222.235 C795.004,223.46 792.338,223.863 789.911,223.846 C783.081,223.798 776.25,223.83 769.388,223.83 C768.941,224.293 768.479,224.771 768.042,225.223 C767.588,230.906 766.076,236.339 764.493,241.77 C763.188,246.242 762.023,250.757 760.931,255.287 C760.273,258.009 758.515,260.445 758.816,263.412 C756.88,265.277 758.896,268.269 756.905,270.117 C757.017,275.603 755.455,280.902 754.656,286.246 C753.898,291.324 753.875,296.642 751.912,301.537 C751.854,301.681 751.888,301.871 751.908,302.035 C752.484,306.629 750.167,311.046 750.974,315.603 C751.321,317.572 749.518,319.396 750.883,321.295 C748.875,323.035 750.427,325.371 749.693,327.654 C748.383,328.326 746.197,326.955 745.126,329.091 C732.404,320.742 722.817,309.818 714.91,296.896 C714.91,295.461 714.869,293.627 714.92,291.795 C714.986,289.402 714.756,287.058 715.804,284.664 C716.664,282.701 715.049,280.091 716.91,278.129 C716.68,274.562 717.623,271.255 718.861,267.943 C719.998,264.906 720.786,261.732 721.621,258.589 C722.262,256.177 722.528,253.396 721.622,251.334 C720.824,249.515 721.39,247.814 720.702,246.005 C712.324,246.005 703.875,246.005 695.328,246.005 C694.271,243.57 695.541,241.915 696.895,240.377 C699.026,237.955 701.529,235.986 704.531,234.706 C706.336,233.934 707.771,232.699 708.927,231.193 C708.519,229.012 707.212,227.435 705.952,226.368 C705.751,224.236 707.478,224.531 707.982,224.421 C709.932,224.002 711.391,222.855 712.924,221.816 C720.043,216.993 725.99,211.178 729.312,202.989 C730.834,199.235 731.836,195.338 732.83,191.463 C734.154,186.296 735.318,181.091 736.087,175.758 C736.928,169.93 737.388,163.899 739.866,158.379 C739.609,153.83 743.037,150.161 742.906,145.643 C745.09,142.894 745.656,139.414 746.791,136.262 C749.351,129.156 752.592,122.327 754.97,115.147 C756.563,110.334 758.756,105.726 760.413,100.91 C762.013,96.258 764.277,91.833 765.832,87.169 C767.056,83.503 768.611,79.973 769.824,76.328 C771.044,72.664 772.239,69.021 773.619,65.403 C775.209,61.24 777.086,57.165 778.409,52.884 C779.683,48.762 781.619,44.802 782.499,40.611 C783.336,36.62 784.681,32.84 785.747,28.959 C786.438,26.44 787.614,24.626 789.366,22.889 C793.32,22.889 797.309,22.889 801.338,22.889 C808.254,28.942 816.03,43.196 818.749,52.528 C819.518,55.169 820.564,58.07 819.924,61.073 C819.666,62.282 819.846,63.528 820.684,64.563 C819.406,65.369 819.83,66.678 819.946,67.73 C820.154,69.604 819.224,71.547 820.768,73.418 C821.424,74.212 821.113,76.033 820.856,77.31 C819.848,82.325 819.574,87.038 820.299,90.735 C820.325,90.871 820.522,90.973 820.588,91.038 L820.588,91.038 Z" id="Fill-16"></path>
            <path d="M1172.77,285.996 C1168.55,285.996 1164.77,285.996 1160.35,285.996 C1164.4,289.029 1168.35,290.689 1172.77,291.949 C1172.77,289.714 1172.77,287.935 1172.77,285.996 Z M1227.29,254.773 C1229.84,252.193 1233.58,251.193 1235.88,248.214 C1234.86,246.601 1237.43,245.755 1236.56,243.837 C1232.64,243.64 1229.63,246.802 1226.01,247.011 C1226.01,249.433 1226.01,251.552 1226.01,253.49 C1226.53,254.005 1226.88,254.359 1227.29,254.773 Z M1256.69,165.096 C1261.04,156.619 1264.97,147.883 1269.95,139.953 C1261.94,127.978 1254.12,116.277 1246.42,104.763 C1244.62,104.98 1244.23,106.32 1243.24,106.844 C1240.3,106.692 1240.3,106.692 1237.07,104.845 C1230.81,104.845 1230.81,104.847 1225.63,108.563 C1224.09,109.666 1222.65,110.985 1220.97,111.803 C1214.29,115.051 1208.86,119.974 1203.42,124.85 C1200.15,127.786 1197.36,131.225 1194.45,134.544 C1188.99,140.778 1184.55,147.583 1180.85,154.932 C1179.53,157.551 1178.17,160.15 1176.86,162.769 C1175.61,165.24 1173.62,166.648 1170.88,166.802 C1169.86,166.859 1168.99,166.984 1168.32,167.802 C1167.02,166.502 1165.72,165.208 1164.43,163.913 C1161.77,163.208 1159.62,165.515 1157.24,164.823 C1154.44,168.16 1154.18,172.286 1151.59,175.342 C1154.93,176.393 1157.87,177.32 1160.73,178.218 C1161.49,180.896 1159.68,182.771 1158.85,184.929 C1156.25,191.679 1153.53,198.38 1151.06,205.176 C1148.85,211.261 1146.79,217.412 1144.93,223.61 C1144.4,225.376 1144.86,227.331 1143.95,229.211 C1143.06,231.041 1145.27,232.674 1144.99,234.559 C1149.47,233.358 1153.81,232.093 1158.31,231.893 C1160.77,231.784 1162.91,231.015 1165.09,230.105 C1168.87,228.525 1172.02,225.862 1175.55,223.971 C1181.63,220.718 1187.17,216.667 1192.94,213.013 C1202.02,207.27 1211.21,201.781 1220.72,196.809 C1223.75,195.228 1226.69,193.456 1229.55,191.592 C1233.87,188.775 1237.88,185.541 1241.38,181.771 C1243.58,182.42 1244.97,180.874 1245.46,179.57 C1247.31,174.725 1251.6,172.08 1254.74,168.422 C1255.59,167.438 1256.59,166.718 1257.82,166.342 C1257.47,165.96 1257.15,165.598 1256.69,165.096 Z M1242.91,243.709 C1242.38,246.333 1243.62,248.914 1241.94,251.461 C1240.73,253.298 1239.4,256.738 1238.27,257.896 C1236.64,259.56 1234.99,261.203 1233.38,262.824 C1229.83,262.824 1226.34,262.824 1222.92,262.761 C1221.89,259.572 1220.42,256.662 1217.47,254.447 C1216.1,257.328 1214.9,259.863 1213.55,262.699 C1217.01,262.699 1219.93,262.699 1222.92,262.761 C1221.49,265.326 1218.25,265.771 1216.72,268.947 C1216.72,270.392 1216.72,272.513 1216.72,274.818 C1213.59,274.851 1211.16,274.617 1209.58,271.265 C1208.58,269.138 1206.19,267.666 1204.36,265.832 C1202.89,267.379 1201.43,268.925 1199.84,270.611 C1199.84,274.349 1199.84,278.343 1199.84,282.802 C1191.41,287.927 1182.44,292.58 1173.54,297.589 C1171.09,297.093 1169.55,293.964 1166.51,294.82 C1163.94,292.377 1161.68,294.656 1159.69,295.64 C1156.39,297.265 1154.02,296.755 1151.03,294.673 C1145.6,290.886 1140.38,286.962 1135.67,282.271 C1133.51,280.125 1130.6,278.671 1128.77,276.17 C1125.05,271.089 1120.12,267.154 1116.08,262.414 C1112.74,258.482 1110.66,253.888 1109.67,248.566 C1108.85,244.148 1109.47,239.334 1106.86,235.281 C1107.54,231.981 1105.74,228.972 1105.81,225.699 C1105.97,218.04 1106.14,210.362 1105.78,202.715 C1105.43,195.293 1106.66,188.002 1106.98,180.643 C1107.15,176.974 1108.82,173.399 1109.42,169.716 C1110.35,163.999 1112.83,158.739 1113.94,153.068 C1114.62,149.616 1115.94,146.254 1117.28,142.973 C1120.46,135.12 1123.92,127.388 1127.79,119.834 C1129.13,117.205 1130.65,114.577 1132.25,112.243 C1135.11,108.098 1137.25,103.502 1140.51,99.601 C1143.23,96.337 1145.52,92.706 1147.97,89.222 C1151.2,84.657 1155.01,80.556 1158.27,76.007 C1159.42,74.404 1161.06,73.16 1162.46,71.736 C1165.21,68.946 1167.56,65.625 1170.42,63.174 C1173.28,60.729 1175.95,58.1 1178.62,55.502 C1184.74,49.554 1191.67,44.672 1198.67,39.881 C1201.36,38.041 1204.22,36.45 1207.08,34.867 C1214.07,30.995 1221.43,28.44 1229.57,28.843 C1231.07,28.918 1232.57,28.854 1234.3,28.854 C1241.54,34.021 1247.58,40.893 1254.84,46.162 C1254.84,48.325 1254.8,50.321 1254.85,52.316 C1255.01,58.332 1257.55,63.574 1260.89,68.28 C1266.2,75.755 1272.48,82.458 1279.22,88.68 C1283.83,92.933 1287.7,97.835 1291.89,102.455 C1294.52,105.358 1296.34,108.953 1297.66,112.533 C1298.55,114.975 1299.84,117.31 1300.43,119.896 C1300.98,122.303 1301.9,124.627 1302.49,127.027 C1303.01,129.154 1303.67,131.444 1303.65,133.468 C1303.61,136.941 1305.19,140.083 1304.9,143.556 C1304.61,147.031 1304.92,150.55 1304.81,154.045 C1304.69,157.945 1306.31,161.636 1306.07,165.543 C1306.06,165.763 1306.51,166.012 1306.57,166.068 C1303.5,173.88 1300.06,181.437 1297.39,189.843 C1290.67,194.794 1289.36,202.372 1289.9,210.814 C1286.43,210.857 1285.09,207.512 1281.93,207.21 C1279.46,209.231 1278.27,212.775 1276.43,215.835 C1273.31,221.023 1269.29,225.194 1264.54,228.942 C1261.4,231.416 1257.69,233.129 1254.92,236.253 C1254.92,238.148 1254.92,240.127 1254.92,242.231 C1253.68,243.265 1252.41,244.324 1250.73,245.728 C1248.6,245.038 1245.94,243.418 1242.91,243.709 C1246.05,237.929 1246.05,237.929 1245.44,232.937 C1244,232.937 1242.56,232.937 1240.87,232.937 C1239.25,235.912 1239.39,239.448 1237.73,242.249 C1238.67,243.166 1239.6,242.537 1240.28,242.868 C1240.96,243.201 1241.36,244.132 1242.91,243.709 L1242.91,243.709 Z" id="Fill-17"></path>
            <path d="M1069.37,133.832 C1068.64,134.508 1068.64,135.174 1069.37,135.851 C1070.09,135.174 1070.09,134.508 1069.37,133.832 Z M1067.73,138.361 C1069.02,139.034 1069.91,139.003 1071,138.315 C1069.78,137.689 1068.9,137.642 1067.73,138.361 Z M1040.01,153.838 C1039.8,156.511 1039.7,159.179 1040.21,162.735 C1041.99,160.407 1044.6,161.398 1045.92,159.325 C1047.02,157.615 1048.54,156.109 1047.51,153.838 C1045.03,153.838 1042.7,153.838 1040.01,153.838 Z M1067.22,139.012 C1064.8,139.012 1062.91,139.012 1061.13,139.012 C1057.8,142.857 1053.54,145.529 1050.88,149.654 C1050.69,151.429 1051.35,152.525 1053.53,152.957 C1059.88,150.515 1062.72,144.281 1067.22,139.012 Z M1039.27,161.041 C1032.54,162.493 1026.26,163.845 1020.33,165.124 C1018.25,165.826 1019.26,167.567 1018.66,168.546 C1017.18,170.024 1015.59,171.294 1014.43,172.879 C1013.44,174.226 1012.26,175.883 1012.94,177.657 C1013.56,179.283 1013.85,181.405 1016.05,181.899 C1020.11,178.603 1024.38,175.68 1027.97,172.073 C1031.56,168.452 1036.59,166.267 1039.27,161.041 Z M1046.41,162.763 C1006.38,192.83 1002.38,192.83 998.14,192.83 C996.144,199.287 993.423,205.516 992.695,212.517 C992.188,217.384 989.675,222.09 985.23,224.744 C979.95,227.899 977.815,232.404 977.905,238.226 C977.956,241.531 977.441,244.318 975.275,247.197 C972.983,250.246 971.951,254.226 971.884,258.234 C971.851,260.232 971.878,262.232 971.878,263.88 C972.761,266.623 974.992,265.478 976.687,265.99 C977.428,268.308 975.77,269.822 974.801,271.722 C975.993,273.457 976.206,275.464 975.639,277.556 C973.863,284.103 971.359,290.507 971.868,297.492 C972.069,300.254 970.634,302.75 969.705,305.091 C967.194,311.418 965.644,317.832 964.692,324.554 C964.309,327.263 964.397,330.039 963.775,332.64 C963.088,335.515 962.819,338.339 962.896,341.462 C962.032,342.275 961.105,343.234 960.091,344.086 C957.561,346.209 954.917,346.502 952.289,344.683 C947.012,341.029 941.595,337.584 937.212,332.73 C933.204,328.293 930.901,323.31 930.899,317.337 C930.898,313.601 929.431,310.295 927.829,307.111 C925.692,302.867 925.634,298.402 926.002,293.925 C926.103,292.695 926.661,291.23 927.255,289.988 C929.447,285.392 931.239,280.765 930.966,275.49 C930.873,273.697 931.611,271.808 932.203,270.041 C933.396,266.48 934.313,262.902 935.023,259.185 C936.33,252.339 937.896,245.52 940.202,238.875 C941.686,234.601 943.105,230.201 942.923,225.482 C942.736,220.675 944.698,216.262 946.403,211.946 C948.295,207.159 949.67,202.286 950.942,197.323 C952.436,191.501 953.623,185.551 956.799,180.251 C957.537,179.019 958.144,177.435 957.93,175.709 C957.707,173.915 957.88,172.072 957.88,170.331 C960.229,168.14 959.966,165.056 960.798,162.436 C963.416,154.186 965.934,145.901 968.436,137.616 C969.325,134.671 969.927,131.519 971.022,128.673 C972.079,125.926 971.931,122.837 973.764,120.285 C974.395,119.406 973.864,117.695 973.864,116.775 C970.037,111.684 966.403,106.847 962.608,101.798 C964.461,99.608 962.955,96.485 964.879,94.257 C964.266,91.481 967.135,89.085 965.397,86.061 C962.865,84.8 960.24,83.015 958.329,80.789 C960.955,78.162 963.594,75.524 965.833,73.285 C965.833,70.789 965.833,69.135 965.833,67.562 C966.643,66.155 968.02,65.655 969.834,64.973 C974.135,65.001 978.017,62.761 981.567,59.679 C984.155,57.431 985.862,54.599 987.633,51.701 C991.627,45.163 993.868,37.954 996.51,30.869 C997.029,29.474 996.761,28.136 997.332,26.717 C999.734,20.742 999.558,20.672 1006.57,13.659 C1014.08,16.365 1021.75,19.129 1029.41,21.887 C1031.78,30.716 1035.4,39.096 1037.91,47.43 C1042.89,48.663 1047.62,48.558 1052.26,49.062 C1055.29,49.389 1058.32,49.94 1061.37,49.802 C1063.36,49.713 1064.95,51.389 1066.95,50.846 C1069.14,50.254 1070.94,51.821 1073.04,51.903 C1074.9,51.976 1076.91,52.459 1078.49,53.154 C1086.26,56.565 1093.45,60.921 1097.85,68.603 C1100.92,73.983 1103.09,79.599 1102.93,86.018 C1102.82,90.706 1102.81,95.291 1100.18,99.019 C1099.06,103.917 1098.8,108.593 1097.24,113.167 C1095.75,117.538 1093.49,121.334 1091.06,125.109 C1089.15,128.072 1087.1,130.924 1083.74,132.526 C1082.99,132.886 1082.34,133.693 1081.89,134.44 C1077.96,140.901 1073.48,146.919 1068.04,152.202 C1067.1,153.114 1066.11,153.806 1064.91,154.322 C1057.85,157.348 1052.1,162.594 1045.27,166.02 C1044.13,166.586 1043.32,167.816 1042.42,168.8 C1037.45,174.237 1031.67,178.774 1025.85,183.195 C1021.04,186.861 1015.75,189.949 1046.41,162.763 C1083.54,130.029 1081.23,127.733 1081.93,124.976 C1077.45,125.109 1074.33,127.02 1074.07,132.697 C1077,132.697 1079.93,132.697 1046.41,162.763 L1046.41,162.763 Z" id="Fill-18"></path>
            <path d="M424.035,199.9 C427.383,199.398 429.531,197.548 429.907,194.834 C430.153,193.058 430.122,191.177 427.93,190.853 C426.547,192.248 425.304,193.502 424.035,194.784 C424.035,196.263 424.035,197.887 424.035,199.9 Z M371.013,303.781 C369.799,301.597 369.269,299.904 368.815,298.005 C367.853,293.961 367.968,289.943 367.973,285.892 C367.974,284.853 367.531,284.15 367.02,283.271 C364.006,278.087 364.431,272.621 366.147,267.138 C367.461,262.941 368.492,258.732 369.1,254.326 C369.782,249.371 370.577,244.384 371.572,239.445 C372.551,234.592 374.396,230.265 376.45,225.93 C376.833,225.122 377.001,224.412 376.935,223.636 C376.461,218.086 378.802,213.133 380.321,208.032 C381.394,204.434 382.659,200.991 383.164,197.161 C383.608,193.795 383.874,190.256 385,186.983 C385.646,185.103 386.934,183.45 387.633,181.582 C388.17,180.148 389.239,178.922 388.995,177.123 C388.154,170.93 391.046,165.312 391.951,159.379 C393.526,158.334 392.336,156.356 393.091,155.394 C394.071,154.142 394.112,152.912 393.879,151.726 C393.597,150.283 395.427,149.584 394.704,147.839 C392.361,147.839 389.902,147.911 387.449,147.82 C384.899,147.725 382.545,146.402 379.858,146.786 C377.499,147.123 375.156,146.906 372.734,147.684 C370.469,148.412 367.747,148.113 365.298,147.764 C362.742,147.4 360.592,149.22 358.216,148.779 C355.495,148.274 353.232,150.377 350.629,149.812 C348.098,149.262 346.044,151.515 343.213,150.69 C340.787,143.667 336.944,136.934 334.958,129.454 C332.386,126.648 333.251,122.522 331.151,119.535 C330.927,113.343 328.366,107.198 330.902,100.929 C331.308,99.927 330.959,98.62 330.959,97.315 C332.104,96.259 333.32,95.134 334.693,93.868 C351.069,93.868 367.723,93.868 384.419,93.868 C386.373,91.848 388.338,89.819 390.227,87.869 C394.397,87.869 398.39,87.869 401.993,87.869 C404.612,86.071 406.955,84.451 409.308,82.85 C413.755,79.824 417.83,76.326 420.518,71.655 C422.344,68.479 423.853,64.982 424.739,61.437 C426.193,55.618 429.097,50.555 431.899,45.394 C434.014,41.499 440.525,35.498 444.149,34.15 C445.399,33.684 446.6,33.719 447.865,34.241 C449.558,34.94 450.849,36.069 451.944,37.482 C453.06,46.594 457.303,54.552 461.229,62.624 C462.512,65.258 463.907,67.838 465.421,70.771 C468.573,71.541 471.572,69.576 474.53,68.572 C481.152,66.325 487.896,64.631 494.613,62.755 C501.479,60.836 508.662,60.121 515.273,57.154 C516.95,56.403 519.168,56.859 521.233,56.754 C522.766,55.953 524.374,55.009 526.065,54.257 C527.402,53.663 528.671,53.669 530.146,54.469 C533.813,56.46 537.85,57.574 541.782,58.951 C545.114,60.117 547.941,61.947 550.233,65.265 C552.571,68.651 555.316,72.05 558.484,74.905 C560.046,76.312 561.4,77.865 562.012,80.302 C559.623,82.002 559.104,84.728 558.587,87.604 C558.076,90.451 558.472,90.371 558.727,95.407 C558.939,99.603 561.846,103.207 560.732,107.673 C557.333,107.673 553.88,107.673 550.421,107.673 C549.664,109.703 549.396,111.777 548.05,113.288 C545.126,114.578 542.177,114.988 539.086,114.878 C536.53,114.787 534.03,114.846 531.464,115.722 C529.117,116.522 526.27,115.141 523.923,116.843 C520.775,116.084 517.795,117.472 514.876,118.026 C508.74,119.19 502.482,119.681 496.428,121.61 C493.057,122.685 489.578,123.499 486.242,124.81 C483.079,126.052 480.182,127.607 478.017,130.28 C476.665,131.948 474.264,132.091 473.444,133.927 C470.397,132.854 467.782,131.933 464.737,130.861 C460.621,133.002 456.161,135.478 451.555,137.639 C449.684,138.516 448.624,139.666 447.69,141.492 C444.8,147.136 442.524,153.014 440.303,158.931 C439.572,160.874 440.705,163.196 438.945,164.865 C439.594,168.483 436.892,171.76 438.174,175.341 C435.617,175.928 434.604,177.998 432.945,179.265 C432.945,183.46 433.048,187.625 432.896,191.778 C432.833,193.512 433.652,195.364 432.299,197.019 C431.273,198.272 432.766,200.378 430.946,201.447 C430.566,204.682 428.491,206.827 426.444,208.831 C423.482,208.88 424.432,205.028 422.413,204.869 C420.944,206.327 419.677,207.585 417.934,209.314 C417.934,221.707 417.934,235.031 417.934,248.384 C416.686,249.56 414.535,247.908 413.287,250.22 C412.772,247.252 411.44,244.876 411.96,242.4 C411.358,241.651 410.859,241.855 410.29,241.892 C408.4,248.921 406.502,255.978 404.565,263.177 C405.7,263.992 406.644,264.67 407.803,265.502 C408.971,265.156 409.355,262.722 411.684,262.806 C412.505,269.599 411.855,276.173 409.653,282.671 C408.214,286.923 407.188,291.314 405.943,295.632 C405.087,298.607 405.237,301.695 404.84,304.701 C403.813,312.453 403.602,320.429 399.944,327.63 C399.241,329.015 398.941,330.64 397.509,331.734 C394.714,331.888 392.086,331.871 389.399,329.978 C386.884,328.205 383.733,327.045 380.35,327.925 C377.266,323.25 374.379,318.578 372.373,313.55 C371.168,310.527 370.349,307.095 371.013,303.781 L371.013,303.781 Z" id="Fill-19"></path>
            <path d="M586.85,187.413 C585.967,188.295 585.506,188.754 584.975,189.286 C585.137,190.833 584.049,192.947 586.85,193.545 C586.85,191.684 586.85,189.931 586.85,187.413 Z M554.107,250.494 C556.157,251.908 558.396,252.216 560.892,251.533 C561.197,248.459 559.452,245.813 559.81,242.059 C557.56,245.387 555.834,247.941 554.107,250.494 Z M551.251,167.986 C548.98,170.267 549.077,173.355 547.569,175.667 C545.981,178.103 545.916,181.187 543.941,183.486 C546.264,184.524 548.002,183.256 549.822,182.441 C549.769,180.9 551.125,180.315 551.793,179.498 C552.05,174.979 553.438,171.149 557.4,167.986 C554.968,167.986 553.19,167.986 551.251,167.986 Z M653.306,42.952 C657.793,42.428 661.859,43.301 665.623,45.809 C667.139,46.819 669.007,47.284 670.656,48.111 C676.531,51.057 678.402,53.792 679.961,60.577 C680.789,64.192 682.588,67.494 684.346,70.745 C687.492,76.566 689.532,82.609 688.936,89.35 C688.789,91.003 688.914,92.679 688.914,94.394 C686.455,97.033 682.824,97.367 679.748,98.772 C674.523,101.161 669.561,104.025 664.664,106.946 C660.849,109.221 657.424,112.24 654.107,115.239 C650.281,118.699 646.812,122.547 643.099,126.138 C638.336,130.745 634.853,136.353 631.043,141.68 C630.287,142.736 629.152,143.445 628.732,144.816 C626.84,144.816 625.055,144.816 623.22,144.816 C616.367,156.158 609.49,167.347 599.108,175.871 C597.037,175.972 598.231,173.083 596.208,172.86 C595.813,172.86 595.154,172.86 594.436,172.86 C590.424,176.544 587.572,180.901 586.887,186.454 C588.244,187.08 589.381,186.81 590.505,186.756 C593.098,184.163 595.689,181.571 598.566,178.694 C599.294,181.044 598.651,183.259 599.048,185.472 C594.898,188.198 593.02,192.473 590.921,196.6 C588.872,200.627 587.631,205.135 584.021,208.237 C583.804,210.293 581.873,211.428 581.699,213.851 C581.457,217.221 579.521,220.369 575.118,220.816 C575.118,219.279 575.118,217.825 575.118,217.451 C574.229,215.941 573.813,215.233 573.362,214.467 C565.67,219.099 563.058,225.553 564.18,234.095 C566.547,233.371 566.444,230.275 568.28,230.111 C570.639,229.9 570.299,226.967 572.724,226.67 C572.811,229.311 572.931,231.604 572.211,234.245 C570.678,239.861 567.832,244.785 565.335,249.91 C563.547,253.584 562.893,257.574 561.859,261.476 C560.447,266.812 561.192,272.156 560.843,278.023 C562.793,277.353 564.497,278.564 566.221,277.152 C566.841,276.646 568.119,276.722 569.051,276.853 C573.665,277.502 578.09,275.959 582.632,275.728 C584.384,275.64 586.031,274.254 587.816,273.875 C591.033,273.193 594.207,272.242 597.399,271.525 C600.711,270.781 604.27,270.052 607.435,268.045 C610.273,266.244 613.981,266.607 617.025,266.863 C620.018,265.324 622.575,263.824 624.764,261.603 C627.396,258.929 629.406,259.212 633.613,262.009 C634.213,262.886 633.838,263.898 633.908,264.855 C633.969,265.681 633.92,266.515 633.92,267.324 C633.428,267.816 632.957,268.287 632.486,268.759 C625.535,268.587 619.332,271.091 613.053,273.73 C607.921,275.886 603.008,278.443 597.967,280.752 C597.146,281.129 596.79,281.847 596.032,282.091 C596.032,283.968 596.032,285.754 596.032,287.679 C600.586,287.679 605.036,287.679 609.32,287.679 C617.406,281.845 625.744,276.845 635.606,274.763 C639.318,273.98 643.14,273.685 646.756,272.712 C652.01,271.3 657.381,270.312 662.541,268.615 C665.584,267.617 668.553,266.759 671.791,266.8 C678.084,266.882 684.382,266.824 690.608,266.824 C690.979,267.964 689.78,267.849 689.91,268.605 C682.334,269.05 675.317,271.427 667.911,272.386 C669.418,276.83 670.688,280.572 672.014,284.482 C669.272,285.605 666.651,287.142 663.836,287.705 C660.852,288.298 658.781,290.99 655.605,290.822 C652.261,293.097 648.52,294.687 645.014,296.675 C639.131,300.009 633.379,303.681 626.863,305.914 C623.539,307.05 620.216,308.328 616.943,309.699 C610.885,312.24 609.547,312.986 606.751,318.478 C605.979,319.996 605.245,321.564 604.246,322.925 C603.307,324.209 601.238,324.17 600.662,325.556 C593.063,326.724 585.693,327.857 578.645,328.939 C572.766,324.56 566.264,322.082 560.684,318.072 C556.028,317.418 552.439,313.441 547.303,313.83 C546.399,311.41 545.102,309.084 544.861,306.171 C539.901,302.009 535.948,296.724 533.42,290.654 C531.187,285.293 528.775,280.164 525.264,275.513 C524.419,274.394 523.847,272.843 523.845,271.091 C523.841,267.73 522.383,264.461 522.919,261.007 C522.963,260.724 522.871,260.341 522.699,260.113 C520.904,257.718 520.341,254.746 518.974,252.08 C519.893,247.408 522.119,243.146 524.405,238.952 C525.288,237.332 524.21,235.515 525.126,234.268 C526.292,232.678 525.265,231.107 525.583,229.845 C526.52,226.131 524.735,221.997 527.58,218.57 C528.76,217.149 529.1,215.184 528.974,213.156 C528.634,207.664 530.85,202.697 532.626,197.692 C535.2,190.44 538.424,183.436 540.989,176.166 C543.244,169.776 545.632,163.343 551.815,158.79 C553.787,158.17 555.263,160.634 557.396,160.939 C561.025,153.663 564.605,146.486 568.396,138.882 C570.252,138.882 572.512,138.882 574.598,138.882 C575.632,136.578 573.315,136.301 572.863,134.96 C571.602,131.221 571.486,128.9 573.354,124.949 C575.635,120.125 578.6,115.731 581.725,111.391 C584.12,108.065 586.781,104.927 588.979,101.44 C590.251,99.423 592.021,97.654 593.609,95.915 C596.473,92.779 598.673,89.063 601.959,86.314 C605.887,83.029 608.514,78.537 612.238,75.098 C620.063,67.871 627.737,60.518 636.584,54.395 C641.51,50.986 646.813,48.023 651.352,44.019 C651.85,43.579 652.879,43.65 653.306,42.952 L653.306,42.952 Z" id="Fill-20"></path>
            <path d="M228.348,264.582 C229.428,260.418 231.559,257.203 232.143,253.164 C232.801,248.609 233.482,244.054 234.165,239.505 C235.017,233.832 235.508,227.977 237.728,222.543 C237.961,221.972 238.054,221.251 237.945,220.649 C237.231,216.685 239.23,212.984 239.008,209.062 C238.938,207.836 239.722,206.616 240.126,205.539 C241.514,201.848 242.209,198.064 243.083,194.256 C244.675,187.315 245.041,180.004 248.686,173.609 C249.292,172.546 248.904,171.358 248.958,170.229 C249.136,166.521 248.688,162.819 249.816,159.104 C250.22,157.776 250.698,156.413 251.231,155.176 C252.72,151.722 253.952,147.561 253.986,144.221 C259.09,139.278 265.397,138.232 272.688,138.998 C276.602,144.366 283.325,146.685 288.801,150.733 C290.951,152.321 292.746,154.175 294.508,156.048 C295.468,157.069 296.188,158.606 296.025,160.404 C295.785,163.042 295.963,165.717 295.963,168.03 C298.196,172.27 300.275,176.217 302.45,180.346 C299.385,181.324 296.93,182.36 295.963,186.661 C295.963,188.59 295.843,191.918 296,195.233 C296.132,198.021 295.337,200.291 293.047,202.168 C295.372,205.358 295.462,208.438 293.455,212.047 C292.13,214.433 291.116,217.368 292.146,220.156 C287.274,224.771 286.634,230.398 287.009,236.253 C283.441,240.153 278.857,242.706 275.091,246.118 C274.964,248.337 275.521,250.865 274.548,252.464 C273.357,254.423 275.192,256.914 272.976,258.355 C272.899,258.404 272.948,258.675 272.969,258.839 C273.503,263.101 271.803,267.14 271.879,271.42 C272.116,284.734 271.966,298.054 271.966,311.353 C273.155,311.789 272.638,313.173 273.424,313.779 C274.624,313.14 274.938,311.857 275.528,310.863 C276.245,310.863 276.899,310.863 277.759,310.863 C277.759,314.671 277.759,318.451 277.759,322.552 C277.178,323.078 276.318,323.855 275.442,324.646 C275.347,324.546 274.999,324.353 274.991,324.148 C274.941,322.834 274.966,321.515 274.966,320.009 C273.284,320.009 271.716,320.009 270.055,320.009 C270.055,324.589 270.055,329.039 270.055,333.425 C271.879,334.8 273.052,332.814 274.655,332.724 C275.388,331.252 274.671,329.541 275.097,327.921 C276.706,327.921 278.157,327.921 279.574,327.921 C280.238,328.673 281.108,329.148 281.004,330.398 C280.853,332.218 280.95,334.06 280.968,335.894 C281.014,340.826 280.267,345.861 283.541,350.65 C277.682,350.65 272.564,350.65 267.419,350.65 C264.336,348.98 264.579,344.634 261.359,342.877 C260.521,343.943 261.506,345.937 259.256,346.711 C256.706,346.711 253.734,346.711 250.626,346.711 C245.87,343.369 241.076,339.822 236.986,335.386 C235.175,333.421 234.1,331.425 233.86,328.636 C233.584,325.408 233.029,321.962 231.567,319.142 C229.976,316.072 230.748,312.574 228.972,309.709 C229.511,305.447 227.575,301.418 227.903,297.125 C228.219,292.984 227.254,288.64 228.14,284.673 C229.461,278.763 228.575,272.916 228.96,267.06 C229.023,266.093 229.183,265.033 228.348,264.582" id="Fill-21"></path>
            <path d="M325.585,17.867 C327.51,20.103 328.042,22.635 329.363,24.725 C330.806,27.005 329.416,29.671 330.813,32.145 C332.091,34.412 329.402,36.937 329.921,39.499 C327.424,40.372 325.218,41.429 322.746,41.996 C320.556,42.498 318.439,43.635 316.194,44.05 C315.803,45.485 315.571,46.787 318.124,47.768 C321.892,47.153 326.356,49.573 331.115,48.852 C334.924,51.003 339.403,48.823 343.314,50.771 C344.383,51.303 345.939,50.852 347.085,50.852 C351.048,54.814 354.918,58.685 358.944,62.71 C358.944,66.05 358.944,69.71 358.944,73.544 C357.098,74.361 354.98,73.749 352.957,74.632 C351.458,75.286 349.032,74.128 347.125,73.47 C342.93,72.02 338.712,70.708 334.228,70.892 C332.372,70.968 330.944,69.899 329.258,69.531 C326.67,68.966 324.215,67.742 321.481,67.862 C319.371,67.955 317.29,67.885 315.408,66.836 C312.992,65.49 310.372,65.748 307.824,65.888 C302.787,66.163 298.121,64.29 293.26,63.578 C292.76,63.505 292.34,62.683 291.235,62.949 C287.886,66.893 284.345,71.063 280.852,75.176 C281.65,79.519 279.943,83.241 278.389,86.791 C275.696,92.936 274.767,99.252 274.904,105.858 C274.921,106.674 276.39,106.815 275.471,107.907 C272.262,107.271 270.326,105.148 268.962,101.886 C268.962,99.997 268.962,97.667 268.96,95.338 C267.427,93.806 265.896,92.275 264.351,90.731 C263.828,90.421 263.836,89.82 263.996,89.423 C264.551,88.052 262.438,87.689 262.947,86.321 C263.549,84.702 264.34,83.101 264.038,81.277 C267.383,76.822 267.117,71.652 266.915,66.616 C267.44,65.47 268.792,65.093 269.049,63.381 C265.344,61.803 262.138,59.144 258.363,56.851 C255.289,56.851 251.961,56.651 248.668,56.906 C245.337,57.165 242.065,56.329 239.603,54.698 C235.12,51.73 230.458,50.517 225.429,50.883 C224.583,49.756 225.122,49.186 225.737,48.575 C229.379,44.957 233.002,41.321 236.537,37.787 C244.256,39.644 252.009,39.314 259.83,41.147 C261.232,42.305 261.475,45.019 264.19,45.967 C270.107,41.194 276.654,42.34 283.243,45.206 C284.648,43.322 286.666,42.362 287.261,40.117 C287.409,39.56 288.078,39.022 288.638,38.714 C292.612,36.531 295.079,32.682 298.479,29.887 C304.062,25.299 310.475,20.379 319.853,18.726 C321.712,18.398 323.535,17.84 325.585,17.867" id="Fill-22"></path>
            <path d="M674.127,252.136 C671.635,254.48 669.721,256.775 666.667,257.935 C664.463,258.773 662.183,259.535 659.979,259.707 C655.064,260.087 650.102,259.826 645.078,259.826 C645.021,259.127 644.984,258.675 644.926,257.962 C648.168,257.953 650.928,256.498 653.85,255.505 C657.055,254.418 660.301,253.367 663.684,252.759 C667.004,252.164 670.252,251.359 674.127,252.136" id="Fill-23"></path>
            <path d="M631.002,313.666 C631.002,312.046 631.002,310.613 631.002,309.158 C632.355,308.212 634.414,309.703 635.407,307.783 C636.269,309.623 637.626,311.31 636.662,313.666 C634.968,313.666 633.205,313.666 631.002,313.666" id="Fill-24"></path>
            <path d="M626.285,318.148 C624.109,319.197 622.401,320.533 620.119,319.554 C620.119,317.025 620.119,314.472 620.119,311.822 C623.028,313.316 623.125,317 626.285,318.148" id="Fill-25"></path>
        </g>
    </g>
</svg>
