<svg xmlns="http://www.w3.org/2000/svg" width="101" height="21" viewBox="0 0 101 21">
    <title>House House Logo</title>
    <path fill="#fff" fill-rule="evenodd" d="M24.55 20.293h-.656l-.242-.666h-1.51l-.243.666h-.657l1.293-3.444h.72l1.294 3.443zm-1.06-1.198l-.594-1.642-.592 1.642h1.185zm6.196 1.198h-1.23V16.85h1.225c1.033 0 1.724.71 1.724 1.718 0 1.017-.69 1.725-1.718 1.725zm-.005-.532c.717 0 1.132-.536 1.132-1.192 0-.66-.395-1.188-1.126-1.188h-.65v2.38h.645zm5.677.533v-.532H33.68v-.96h1.642v-.53H33.68v-.89h1.677v-.53H33.1v3.443h2.257zm2.862.062c.882 0 1.272-.496 1.272-1.07 0-1.28-1.915-.882-1.915-1.528 0-.253.217-.428.553-.428.345 0 .696.123.957.396l.326-.45c-.3-.31-.72-.484-1.23-.484-.725 0-1.198.44-1.198 1.012 0 1.265 1.915.816 1.915 1.54 0 .23-.183.474-.657.474-.46 0-.82-.227-1.04-.48l-.327.47c.296.32.735.547 1.343.547zm3.517-.062V16.85h-.578v3.443h.577zm3.425.067c.567 0 1.03-.253 1.352-.63v-1.286h-1.56v.532h.987v.532c-.147.15-.443.31-.778.31-.652 0-1.136-.527-1.136-1.245 0-.728.484-1.244 1.136-1.244.365 0 .676.2.854.458l.468-.284c-.26-.392-.68-.712-1.322-.712-.958 0-1.728.697-1.728 1.78 0 1.08.77 1.788 1.728 1.788zm5.947-.067V16.85h-.58v2.384L48.85 16.85h-.593v3.443h.578V17.83l1.718 2.463h.56zm5.382.062c.883 0 1.273-.496 1.273-1.07 0-1.28-1.915-.882-1.915-1.528 0-.253.217-.428.553-.428.345 0 .696.123.957.396l.326-.45c-.3-.31-.72-.484-1.23-.484-.725 0-1.198.44-1.198 1.012 0 1.265 1.915.816 1.915 1.54 0 .23-.183.474-.657.474-.46 0-.82-.227-1.04-.48l-.327.47c.295.32.734.547 1.342.547zm4.253-.062V17.38h.998v-.53H59.17v.53h.998v2.913h.577zm4.052.062c.958 0 1.426-.573 1.426-1.425v-2.08h-.587v2.064c0 .547-.29.904-.84.904-.547 0-.838-.357-.838-.904V16.85h-.588v2.08c0 .852.474 1.425 1.427 1.425zm4.496-.062h-1.23V16.85h1.225c1.03 0 1.722.71 1.722 1.718 0 1.017-.69 1.725-1.717 1.725zm-.005-.532c.715 0 1.13-.536 1.13-1.192 0-.66-.395-1.188-1.125-1.188h-.652v2.38h.648zm3.997.533V16.85h-.578v3.443h.578zm3.38.062c-.987 0-1.683-.754-1.683-1.782 0-1.027.696-1.78 1.683-1.78.982 0 1.683.753 1.683 1.78 0 1.028-.7 1.782-1.683 1.782zm0-.537c-.666 0-1.09-.537-1.09-1.245 0-.712.424-1.244 1.09-1.244.66 0 1.09.53 1.09 1.243 0 .708-.43 1.245-1.09 1.245zM.32 11.686v-.774c1.218-.052 1.382-.207 1.382-.74V1.875c0-.534-.164-.69-1.382-.74V.36h5.644v.775c-.807.05-1.284.172-1.284.74V5.37h3.604V1.874c0-.568-.477-.69-1.284-.74V.36h5.644v.775c-1.218.05-1.382.206-1.382.74v8.297c0 .533.164.688 1.382.74v.774H7v-.774c.807-.052 1.284-.172 1.284-.74V6.247H4.68v3.925c0 .568.477.688 1.284.74v.774H.32zm17.375.19c-2.616 0-4.097-1.55-4.097-4.166 0-2.6 1.58-4.2 4.097-4.2 2.584 0 4.08 1.532 4.08 4.13 0 2.618-1.58 4.236-4.08 4.236zm.066-.81c1.087 0 1.334-1.032 1.334-3.39 0-2.36-.362-3.357-1.48-3.357-1.103 0-1.334.997-1.334 3.356 0 2.358.362 3.39 1.48 3.39zm8.096.758c-1.447 0-2.27-.947-2.27-2.6v-3.94c0-.517-.18-.827-1.12-.844v-.706l3.654-.07v5.113c0 .844.312 1.377 1.053 1.377.51 0 .79-.12 1.217-.344V5.283c0-.516-.23-.792-1.12-.826V3.75l3.654-.085v6.644c0 .516.214.62 1.12.67v.706h-3.62V10.43c-.74.81-1.547 1.394-2.568 1.394zm7.19 0V9.018h.79c.708 1.274 1.794 1.945 2.6 1.945.807 0 1.136-.327 1.136-.826 0-.688-.61-1.033-2.04-1.446-1.778-.515-2.485-1.083-2.485-2.39 0-1.67 1.382-2.738 3.274-2.738.577 0 1.285.24 1.663.5l.41-.5h.808v2.513h-.79c-.756-1.016-1.48-1.653-2.27-1.653-.592 0-1.053.327-1.053.86 0 .707.658.896 1.695 1.154 1.81.448 2.83 1.12 2.83 2.6 0 1.617-1.366 2.788-3.29 2.788-.61 0-1.515-.224-1.942-.5l-.494.5h-.84zm11.568.052c-2.567 0-4.048-1.412-4.048-4.063 0-2.737 1.63-4.303 4.03-4.303 2.42 0 3.638 1.825 3.506 4.252h-4.87v.05c0 1.79.674 2.962 2.155 2.962.823 0 1.563-.465 2.172-1.36l.51.413c-.774 1.274-1.844 2.05-3.456 2.05zM44.5 4.32c-.808 0-1.186.997-1.252 2.72l2.32-.036c.165-1.497-.164-2.685-1.07-2.685zm8.028 7.366v-.774c1.218-.052 1.382-.207 1.382-.74V1.875c0-.534-.164-.69-1.382-.74V.36h5.644v.775c-.806.05-1.283.172-1.283.74V5.37h3.602V1.874c0-.568-.477-.69-1.283-.74V.36h5.642v.775c-1.217.05-1.382.206-1.382.74v8.297c0 .533.165.688 1.382.74v.774H59.21v-.774c.805-.052 1.282-.172 1.282-.74V6.247H56.89v3.925c0 .568.476.688 1.282.74v.774h-5.644zm17.376.19c-2.617 0-4.097-1.55-4.097-4.166 0-2.6 1.58-4.2 4.097-4.2 2.583 0 4.08 1.532 4.08 4.13 0 2.618-1.58 4.236-4.08 4.236zm.065-.81c1.085 0 1.332-1.032 1.332-3.39 0-2.36-.362-3.357-1.48-3.357-1.103 0-1.333.997-1.333 3.356 0 2.358.36 3.39 1.48 3.39zm8.095.758c-1.448 0-2.27-.947-2.27-2.6v-3.94c0-.517-.182-.827-1.12-.844v-.706l3.653-.07v5.113c0 .844.313 1.377 1.053 1.377.51 0 .79-.12 1.22-.344V5.283c0-.516-.232-.792-1.12-.826V3.75l3.652-.085v6.644c0 .516.214.62 1.12.67v.706h-3.62V10.43c-.74.81-1.547 1.394-2.567 1.394zm7.19 0V9.018h.79c.707 1.274 1.793 1.945 2.6 1.945.806 0 1.135-.327 1.135-.826 0-.688-.61-1.033-2.04-1.446-1.777-.515-2.485-1.083-2.485-2.39 0-1.67 1.382-2.738 3.274-2.738.575 0 1.283.24 1.66.5l.413-.5h.806v2.513h-.79c-.758-1.016-1.482-1.653-2.272-1.653-.592 0-1.053.327-1.053.86 0 .707.658.896 1.695 1.154 1.81.448 2.83 1.12 2.83 2.6 0 1.617-1.366 2.788-3.29 2.788-.61 0-1.514-.224-1.942-.5l-.494.5h-.84zm11.567.052c-2.567 0-4.048-1.412-4.048-4.063 0-2.737 1.63-4.303 4.032-4.303 2.418 0 3.636 1.825 3.504 4.252h-4.87v.05c0 1.79.675 2.962 2.155 2.962.823 0 1.564-.465 2.172-1.36l.51.413c-.773 1.274-1.842 2.05-3.455 2.05zm-.115-7.557c-.806 0-1.185.997-1.25 2.72l2.32-.036c.164-1.497-.165-2.685-1.07-2.685z"/>
</svg>
