<svg xmlns="http://www.w3.org/2000/svg" viewBox="0 0 654 166">
    <title>Mobify Logo</title>
    <g id="word-mark" fill="#fff">
        <path d="M167.127 10.042h20.602l32.57 55.5 32.05-55.5h20.6l3.97 117.385h-21.66l-2.21-81.257-28.18 47.9h-10.39l-28.34-46.66-1.78 80.023h-20.78l3.54-117.385zm120.027 76.1c0-5.986 1.083-11.648 3.257-16.99 2.18-5.342 5.2-10.008 9.07-14 3.88-3.99 8.54-7.16 14-9.51 5.46-2.346 11.48-3.52 18.05-3.52s12.59 1.174 18.05 3.52c5.46 2.35 10.13 5.52 14 9.51 3.88 3.992 6.9 8.658 9.07 14 2.17 5.342 3.26 11.004 3.26 16.99 0 5.988-1.08 11.653-3.25 16.994-2.17 5.343-5.19 10.036-9.07 14.087-3.87 4.05-8.54 7.25-13.99 9.596-5.46 2.34-11.47 3.52-18.05 3.52-6.57 0-12.59-1.18-18.05-3.52-5.46-2.35-10.12-5.55-13.99-9.6-3.875-4.05-6.9-8.75-9.07-14.09-2.173-5.34-3.256-11.01-3.256-17zm44.373 26.238c3.99 0 7.454-.792 10.39-2.377 2.932-1.585 5.37-3.668 7.307-6.25 1.937-2.582 3.373-5.4 4.314-8.453.938-3.05 1.41-6.103 1.41-9.157 0-2.933-.472-5.957-1.41-9.068-.94-3.11-2.377-5.927-4.314-8.453-1.937-2.523-4.375-4.578-7.308-6.163-2.935-1.59-6.4-2.38-10.39-2.38s-7.455.79-10.388 2.37c-2.936 1.58-5.37 3.64-7.308 6.16-1.936 2.52-3.375 5.34-4.313 8.45-.94 3.11-1.41 6.13-1.41 9.06 0 3.05.47 6.1 1.41 9.16.938 3.05 2.377 5.87 4.313 8.45 1.937 2.58 4.372 4.66 7.308 6.25 2.933 1.58 6.397 2.38 10.39 2.38zm55.395-102.307h20.78v40.5c1.408-1.41 4.107-2.993 8.1-4.754 3.99-1.77 8.803-2.65 14.438-2.65 5.987 0 11.297 1.12 15.936 3.34 4.636 2.23 8.6 5.22 11.886 8.98 3.285 3.76 5.78 8.22 7.484 13.38 1.7 5.16 2.553 10.62 2.553 16.37 0 6.22-1.09 12.06-3.26 17.52-2.18 5.46-5.29 10.21-9.34 14.26-4.05 4.05-8.95 7.28-14.7 9.683-5.76 2.404-12.21 3.61-19.37 3.61s-13.77-.59-19.81-1.76c-6.05-1.174-10.95-2.406-14.71-3.7V10.07zm20.78 100.546c1.642.58 3.345 1.02 5.106 1.32 1.76.29 4.518.44 8.276.44 4.225 0 7.923-.74 11.093-2.2 3.17-1.47 5.87-3.44 8.1-5.9 2.23-2.47 3.902-5.31 5.02-8.54 1.113-3.23 1.67-6.55 1.67-9.95 0-3.17-.38-6.22-1.143-9.16-.765-2.94-1.967-5.55-3.61-7.84-1.645-2.29-3.728-4.11-6.25-5.46-2.526-1.35-5.548-2.03-9.07-2.03-6.34 0-11.123 1.61-14.35 4.84-3.23 3.23-4.843 7.66-4.843 13.29v31.17zm223.083-65.37l-20.78 56.52-23.595-56.52h-42.62V33.28c0-4.93 1.897-8.716 4.305-11.36 2.404-2.64 6.01-3.96 10.12-3.96 3.71 0 7.34 2.4 7.764 2.585l5.25-17.847c-1.19-.46-2.34-.836-3.55-1.114C563.09.526 558.12 0 554.37 0c-26.625 0-30.15 21.527-30.15 32.928v12.33h-13.696v15.65h13.695v66.518h19.56V60.91l25.79-.002 30.03 66.07s-4.67 12.795-6.88 15.57c-8.07 10.144-17.07 4.858-17.72 4.377l-3.57 15.206c.816.39 1.656.74 2.534 1.06 3.11 1.12 7.012 1.67 11.71 1.67 5.4 0 9.86-1.17 13.38-3.52 3.52-2.35 6.485-5.37 8.893-9.07 2.4-3.69 4.43-7.72 6.07-12.06 1.64-4.34 3.283-8.41 4.93-12.52l34.53-82.43h-22.71zm-154.48-24.87c-.002-7.1 5.753-12.86 12.853-12.86s12.856 5.75 12.856 12.85-5.755 12.86-12.856 12.86c-7.1 0-12.855-5.76-12.855-12.86zm2.58 107.04h20.78V45.25h-20.78v82.17z"/>
    </g>
    <g id="spark" fill="#fff" >
        <path id="outer-orange" opacity="0.75" d="M96.523 110.875s-23.878-25.21-38.506-29.17c-14.534-4.295-48.083 4.66-48.083 4.66l4.44 24.397 35.218.004 30.504 18.92 16.427-18.812z"/>
        <path id="outer-red" opacity="0.75" d="M103.328 58.84l1.054-35.66-24.506-4.82s-9.895 33.283-6.01 47.932c3.548 14.734 28.08 39.31 28.08 39.31l19.266-15.894-17.884-30.87z"/>
        <path id="outer-blue" opacity="0.75" d="M49.2 7.56L31.41 38.485 0 55.4l8.078 23.633S41.85 70.96 52.594 60.27C63.58 49.833 72.597 16.3 72.597 16.3L49.2 7.56z"/>
        <path id="inner-org" d="M49.6 110.767l46.923.108s-23.878-25.21-38.506-29.17c-14.534-4.295-48.083 4.66-48.083 4.66l39.667 24.4z"/>
        <path id="inner-red" d="M103.324 58.83L79.876 18.36s-9.894 33.283-6.01 47.932c3.55 14.734 28.08 39.31 28.08 39.31l1.378-46.77z"/>
        <path id="inner-blu" d="M31.405 38.49L8.08 79.034S41.85 70.96 52.594 60.27C63.58 49.833 72.597 16.3 72.597 16.3L31.405 38.49z"/>
        </g>
</svg>
