<svg width="100" height="75" viewBox="0 0 100 75" xmlns="http://www.w3.org/2000/svg">
    <title>Email</title>
    <path d="M99.838 62.313c0 2.186-.616 4.212-1.602 5.995l-31.523-35.221 31.181-27.243c1.213 1.922 1.944 4.18 1.944 6.62v49.85zm-49.919-22.831l43.387-37.911c-1.78-.973-3.785-1.57-5.948-1.57h-74.879c-2.165 0-4.171.597-5.944 1.57l43.384 37.911zm12.096-2.294l-10.043 8.781c-.587.511-1.319.766-2.053.766-.735 0-1.466-.255-2.053-.766l-10.045-8.781-31.922 35.671c1.913 1.199 4.156 1.917 6.581 1.917h74.879c2.425 0 4.668-.718 6.581-1.917l-31.924-35.671zm-60.071-31.345c-1.213 1.922-1.944 4.18-1.944 6.621v49.85c0 2.186.613 4.212 1.603 5.995l31.519-35.227-31.178-27.238z"/>
</svg>
