<svg width="25" height="25" viewBox="0 0 25 25" xmlns="http://www.w3.org/2000/svg">
    <title>Icon: LinkedIn</title>
    <path d="M3.158.304c1.59 0 2.883 1.295 2.883 2.888 0 1.594-1.293 2.889-2.883 2.889-1.594 0-2.884-1.295-2.884-2.889 0-1.593 1.29-2.888 2.884-2.888zM.669 24.304h4.974v-16.032h-4.974v16.032zM8.764 8.272h4.77v2.19h.067c.664-1.261 2.286-2.589 4.706-2.589 5.037 0 5.966 3.32 5.966 7.637v8.794h-4.97v-7.796c0-1.859-.034-4.251-2.585-4.251-2.588 0-2.985 2.025-2.985 4.116v7.93h-4.97v-16.032z"/>
</svg>
