<svg width="24" height="23" viewBox="0 0 24 23" xmlns="http://www.w3.org/2000/svg"><title>Icon: GitHub</title><path d="M12.238.431c-6.626 0-11.999 5.372-11.999 12.001 0 5.301 3.437 9.799 8.206 11.385.6.11.82-.26.82-.578l-.015-2.041c-3.338.725-4.042-1.608-4.042-1.608-.546-1.385-1.333-1.755-1.333-1.755-1.09-.744.082-.73.082-.73 1.205.085 1.839 1.237 1.839 1.237 1.07 1.834 2.808 1.304 3.492.997.11-.776.419-1.304.762-1.604-2.664-.305-5.465-1.333-5.465-5.932 0-1.31.467-2.381 1.235-3.219-.124-.305-.537-1.525.118-3.176 0 0 1.008-.323 3.3 1.231.957-.268 1.982-.4 3.003-.405 1.019.005 2.046.138 3.004.404 2.292-1.552 3.297-1.231 3.297-1.231.654 1.651.243 2.871.119 3.176.769.838 1.234 1.91 1.234 3.219 0 4.609-2.805 5.624-5.479 5.921.431.371.815 1.103.815 2.222 0 1.604-.015 2.898-.015 3.292 0 .322.216.694.826.577 4.764-1.59 8.198-6.085 8.198-11.384 0-6.626-5.373-11.999-12.001-11.999z"/></svg>