<svg width="24" height="21" viewBox="0 0 24 21" xmlns="http://www.w3.org/2000/svg"><title>Icon: Twitter</title><path d="M21.204 3.61c1.017-.61 1.798-1.574 2.166-2.724-.952.565-2.006.974-3.126 1.194-.898-.958-2.178-1.556-3.595-1.556-2.72 0-4.924 2.205-4.924 4.924 0 .386.044.762.128 1.122-4.093-.203-7.722-2.164-10.151-5.143-.423.727-.666 1.572-.666 2.474 0 1.708.869 3.215 2.191 4.099-.809-.026-1.568-.247-2.232-.616v.062c0 2.385 1.697 4.376 3.95 4.828-.413.113-.848.173-1.297.173-.318 0-.626-.032-.926-.089.626 1.956 2.446 3.381 4.601 3.42-1.685 1.321-3.808 2.108-6.116 2.108-.398 0-.789-.023-1.175-.069 2.179 1.398 4.768 2.212 7.549 2.212 9.058 0 14.011-7.504 14.011-14.011l-.014-.637c.958-.693 1.794-1.56 2.453-2.548-.882.392-1.833.657-2.828.776z"/></svg>