<svg width="24" height="24" viewBox="0 0 24 24" xmlns="http://www.w3.org/2000/svg">
    <title>Icon: Instagram</title>
    <g fill="">
        <path d="M11.981.038c-3.254 0-3.662.014-4.94.072-1.275.058-2.146.26-2.908.556-.788.306-1.456.714-2.122 1.379-.666.665-1.076 1.331-1.382 2.118-.296.76-.499 1.629-.557 2.902-.058 1.275-.072 1.682-.072 4.929 0 3.247.014 3.654.072 4.929.058 1.272.261 2.142.557 2.902.306.786.716 1.453 1.382 2.118.666.665 1.334 1.073 2.122 1.379.762.295 1.633.498 2.908.556 1.278.058 1.686.072 4.94.072 3.254 0 3.662-.014 4.94-.072 1.275-.058 2.146-.26 2.908-.556.788-.306 1.456-.714 2.122-1.379.666-.665 1.076-1.331 1.382-2.118.296-.76.499-1.629.557-2.902.058-1.275.072-1.682.072-4.929 0-3.247-.014-3.654-.072-4.929-.058-1.272-.261-2.142-.557-2.902-.306-.786-.716-1.453-1.382-2.118-.666-.665-1.334-1.073-2.122-1.379-.762-.295-1.633-.498-2.908-.556-1.278-.058-1.686-.072-4.94-.072m0 2.154c3.199 0 3.578.012 4.841.07 1.168.053 1.803.248 2.225.412.559.217.958.476 1.378.894.419.418.679.817.896 1.375.164.421.359 1.054.413 2.22.058 1.261.07 1.639.07 4.831s-.012 3.57-.07 4.831c-.053 1.166-.249 1.799-.413 2.22-.217.558-.477.956-.896 1.375-.419.418-.818.677-1.378.894-.422.164-1.057.359-2.225.412-1.263.058-1.642.07-4.841.07-3.199 0-3.578-.012-4.841-.07-1.168-.053-1.803-.248-2.225-.412-.559-.217-.958-.476-1.378-.894-.419-.418-.679-.817-.896-1.375-.164-.421-.359-1.054-.413-2.22-.058-1.261-.07-1.639-.07-4.831s.012-3.57.07-4.831c.053-1.166.249-1.799.413-2.22.217-.558.477-.956.896-1.375.419-.418.818-.677 1.378-.894.422-.164 1.057-.358 2.225-.412 1.263-.057 1.642-.07 4.841-.07"/>
        <path d="M11.981 15.978c-2.206 0-3.994-1.784-3.994-3.985 0-2.201 1.788-3.985 3.994-3.985 2.206 0 3.994 1.784 3.994 3.985 0 2.201-1.788 3.985-3.994 3.985m0-10.124c-3.398 0-6.152 2.749-6.152 6.139 0 3.391 2.755 6.139 6.152 6.139 3.398 0 6.152-2.748 6.152-6.139 0-3.39-2.755-6.139-6.152-6.139"/>
        <path d="M19.814 5.611c0 .792-.644 1.435-1.438 1.435-.794 0-1.438-.642-1.438-1.435 0-.792.644-1.435 1.438-1.435.794 0 1.438.642 1.438 1.435"/>
    </g>
</svg>
