<svg width="21" height="24" viewBox="0 0 21 24" xmlns="http://www.w3.org/2000/svg">
    <title>Icon: Crystal</title>
    <path d="M9.703 8.281l-.077.12-2.256-4.049 3.737-3.832.071.074.073-.074 3.666 3.832-2.213 4.049-.078-.121-.066.121-1.395-2.18-1.395 2.18-.067-.12zm5.213 12.288l-2.256-4.049-1.467 2.292-1.467-2.292-2.213 4.049 3.666 3.832 3.737-3.832zm-12.477-9.017l4.634.07-1.252-2.416 2.719-.124-2.4-3.941-5.152 1.259 1.45 5.152zm13.626-6.316l-2.378 3.978 2.719.124-1.252 2.416 4.613-.108 1.485-5.091-5.187-1.32zm-10.005 14.427l2.447-3.936-2.716-.171 1.294-2.394-4.614.027-1.574 5.064 5.163 1.41zm13.685-6.556l-4.634-.07 1.252 2.416-2.719.124 2.4 3.941 5.152-1.259-1.45-5.152zm-11.661 1.113l.738-1.877-.738-1.521 1.841-.3 1.163-1.836 1.216 1.821 1.748.161-.712 1.676.613 1.647-1.648.482-1.163 1.623-1.216-1.716-1.841-.159z"/>
</svg>
