<svg xmlns="http://www.w3.org/2000/svg" width="106" height="89" viewBox="0 0 106 89">
    <title>Group</title>
    <path d="M104.84 16.327c-.02-.016-.037-.037-.062-.05l-.036-.017L73.172.475c-.213-.107-.437-.18-.664-.237-.285-.073-.576-.118-.868-.118-1.21 0-2.412.607-3.064 1.665L50.4 31.32l22.81 37.065 31.726-51.554c.105-.17.055-.383-.097-.503M40.39 24.593v33.62l29.884 14.943L40.39 24.593M74.764 75.4l24.6 12.3c3.2 1.6 5.795.48 5.795-2.502v-59.19L74.763 75.402M35.202 16.375L4.37.958C3.81.68 3.28.548 2.8.548 1.452.548.505 1.593.505 3.346v66.57c0 1.782 1.304 3.892 2.898 4.69L30.56 88.182c.696.348 1.36.513 1.958.513 1.688 0 2.872-1.306 2.872-3.498v-68.52c0-.128-.073-.246-.188-.303"/>
</svg>
