<svg width="303" height="101" viewBox="0 0 303 101" xmlns="http://www.w3.org/2000/svg">
    <title>Signature</title>
    <path d="M41.496 56.376c-1.049 2.742.333 5.082.578 7.47.727 7.072 1.853 14.104 2.82 21.152.162 1.181.431 2.381 1.675 2.81.903.311 1.552-.411 1.991-1.136 5.53-9.13 13.922-16.021 19.577-25.049.928-1.481 2.883-2.971 1.591-4.794-1.086-1.533-3.055-.211-4.648-.177-7.866.165-15.75 5.379-23.584-.276zm26.504-56.376c3.03 4.328 2.111 8.771.388 13.239-3.138 8.14-8.068 15.264-12.762 22.523-3.16 4.887-6.344 9.752-8.799 15.06-1.546 3.342-.568 4.695 3.004 4.293 5.94-.668 11.862-1.563 17.817-2.018 6.334-.484 8.028 1.951 5.144 7.681-3.713 7.376-9.928 12.877-15.22 19.063-3.786 4.425-7.604 8.823-11.316 13.309-.657.794-1.79 1.901-.621 3.055 1.191 1.178 2.218-.1 3.017-.709 5.163-3.932 10.198-8.032 15.369-11.954 3.045-2.309 6.164-4.548 9.422-6.538 5.689-3.475 8.007-2.234 7.791 4.454-.114 3.525.856 4.467 4.176 3.66 3.702-.899 7.525-1.341 11.185-2.376 5.36-1.518 10.623-2.399 16.186-.946 4.231 1.104 6.95-.551 9.089-4.728 8.028-15.675 18.756-29.439 31.37-41.692 4.072-3.956 8.896-6.924 14.362-8.764 1.975-.665 3.941-.923 5.867-.33 1.496.461 2.578 1.694 2.364 3.404-.261 2.09-2.056 1.422-3.156 1.242-7.232-1.186-12.325 2.413-17.275 7.016-12.08 11.234-20.888 24.987-30.111 38.431-.611.891-1.789 1.912-1.042 3.1.706 1.124 2.18.725 3.219.539 7.024-1.26 14.153-2.449 20.72-5.191 9.99-4.171 20.169-6.434 30.997-5.863 1.791.095 3.62-.441 5.427-.707 5.113-.752 8.446.299 12.135 3.884-1.026 1.532-2.805 1.456-3.978 1.005-8.624-3.311-17.466 1.761-26.171-.829-1.879-.56-4.593.725-6.613 1.763-9.7 4.988-19.787 8.455-30.792 8.891-1.296.051-2.578.59-3.856.939-2.099.574-4.314 1.007-4.397 3.898-.087 3.062 1.426 5.102 4.149 6.158 4.5 1.743 8.903.743 13.077-1.114 8.208-3.654 15.99-8.115 23.606-12.878 1.845-1.155 3.521-3.007 6.021-2.679.538 1.744-.568 2.406-1.468 3.064-8.743 6.387-17.681 12.449-28.008 16.078-3.319 1.166-6.733 1.736-10.269 1.718-5.933-.029-9.931-3.325-9.99-9.247-.037-3.617-1.616-3.857-4.494-4.021-8.587-.488-16.89.705-25.057 3.277-1.564.493-3.241.696-4.883.858-3.983.392-6.06-1.225-5.5-5.47.193-1.459.709-3.195-.854-4.076-1.511-.852-2.945.348-4.085 1.189-6.023 4.447-11.89 9.108-17.95 13.502-3.081 2.235-6.422 4.121-9.708 6.058-1.286.758-2.897 1.34-4.132.112-1.052-1.047-.648-2.606-.027-3.758.841-1.562 1.039-3.106.811-4.809-1.456-10.868-2.711-21.766-4.409-32.595-.826-5.272-3.449-10.022-5.806-14.794-.549-1.11-1.842-2.475-.22-3.482 1.665-1.036 2.732.437 3.597 1.651 2.063 2.895 2.807 6.34 3.969 9.619.355 1.001.539 2.551 1.949 2.65 1.579.112 1.497-1.406 1.846-2.464 2.526-7.657 6.7-14.45 11.158-21.08 4.182-6.22 7.906-12.695 10.869-19.579.935-2.172 3.203-4.712 1.007-6.853-2.326-2.268-5.065-.1-7.326 1.019-8.108 4.01-15.152 9.649-22.123 15.299-12.583 10.198-22.431 22.673-29.615 37.198-1.54 3.115-2.922 6.334-3.071 9.924-.134 3.247-1.9 2.935-4.004 1.721v-4c1.925-4.361 3.512-8.912 5.829-13.054 13.319-23.804 32.492-41.368 57.171-52.946h5zm145.731 96.945c-1.845-.255-2.001-1.268-1.421-2.209.777-1.263 1.794-2.397 2.816-3.485 16.33-17.393 34.425-32.932 51.774-49.256 8.501-7.998 16.814-16.163 24.125-25.295 2.819-3.523 5.384-7.193 7.082-11.406.462-1.146 1.182-2.318 2.482-1.967 1.594.43 1.648 1.987 1.304 3.336-.671 2.634-2.322 4.754-3.945 6.854-9.923 12.839-21.737 23.908-33.31 35.174-15.519 15.107-31.299 29.948-46.983 44.886-1.31 1.248-2.746 2.362-3.924 3.368zm60.125-11.178c-.869-.609-2.15-1.37-3.266-2.324-1.385-1.188-2.602-2.571-3.948-3.809-4.064-3.739-4.762-3.642-7.953.995-.94 1.367-1.772 2.825-2.845 4.079-1.01 1.185-2.081 3.078-4.014 1.452-1.758-1.481-.025-2.755.75-3.808 1.172-1.597 2.58-3.053 4.045-4.397 2.85-2.616 4.24-5.089.239-7.947-.96-.685-2.471-1.908-1.265-3.259 1.445-1.617 2.723-.241 3.622.995 2.572 3.534 4.709 1.945 6.735-.526 1.367-1.666 2.572-3.465 3.933-5.136.655-.803 1.73-1.383 2.629-.75 1.122.791.996 2.167.219 3.127-1.248 1.541-2.715 2.907-4.105 4.33-3.903 3.999-3.82 5.047.696 8.589 1.96 1.537 3.942 3.048 5.853 4.644.83.694.973 1.701.645 2.737-.228.718-.735 1.059-1.97 1.008zm-54.974-16.056c-.2 1.581-1.186 2.374-2.173 2.857-3.124 1.528-6.325 2.906-9.534 4.251-.722.303-1.78.44-2.077-.596-.143-.496.178-1.408.597-1.738 3.291-2.572 6.878-4.686 10.761-6.224 1.342-.531 2.134.373 2.426 1.45z" />
</svg>
